<svg t="1705838836345" class="icon" viewBox="0 0 1024 1024" version="1.1" xmlns="http://www.w3.org/2000/svg" p-id="5853" width="200" height="200"><path d="M351.185455 373.736727c-4.933818 22.295273-2.327273 99.653818 81.221818 89.390546a62.161455 62.161455 0 0 0 42.519272-82.874182c-10.542545-41.565091-30.952727-90.158545-13.707636-146.990546a392.517818 392.517818 0 0 1 104.238546-166.074181s-72.541091 100.514909 134.981818 314.670545c106.565818 133.794909 42.193455 396.404364-160.954182 401.338182S168.168727 639.185455 351.185455 373.736727z" fill="#d81e06" p-id="5854"></path><path d="M565.597091 55.482182a11.496727 11.496727 0 0 1 7.866182 3.072 11.496727 11.496727 0 0 1 1.466182 15.36 104.168727 104.168727 0 0 0-7.84291 71.400727c7.540364 45.288727 38.260364 121.669818 141.684364 228.398546l0.744727 0.837818a254.650182 254.650182 0 0 1 52.433455 139.473454 300.8 300.8 0 0 1-26.251636 148.945455 217.437091 217.437091 0 0 1-195.956364 131.84c-3.351273 0-6.749091 0.116364-10.100364 0.116363a345.437091 345.437091 0 0 1-147.223272-30.789818 212.829091 212.829091 0 0 1-99.607273-91.531636 206.522182 206.522182 0 0 1-18.129455-133.282909 441.088 441.088 0 0 1 76.8-172.218182 11.636364 11.636364 0 0 1 14.219637-4.072727 11.636364 11.636364 0 0 1 6.725818 13.195636 78.336 78.336 0 0 0 12.288 58.368 57.879273 57.879273 0 0 0 55.226182 17.058909 50.269091 50.269091 0 0 0 33.605818-68.491636c-1.722182-6.749091-3.653818-13.591273-5.725091-20.945455a221.696 221.696 0 0 1-7.842909-132.445091 400.802909 400.802909 0 0 1 107.729454-171.473454 11.869091 11.869091 0 0 1 7.889455-2.816z m126.068364 334.033454c-131.514182-135.866182-153.134545-228.375273-149.899637-279.947636a377.018182 377.018182 0 0 0-69.399273 127.045818 202.752 202.752 0 0 0 7.959273 119.319273c2.117818 7.424 4.096 14.429091 5.888 21.457454a82.944 82.944 0 0 1-6.120727 63.837091 73.797818 73.797818 0 0 1-44.427636 33.047273 11.357091 11.357091 0 0 1-1.838546 0.372364 131.653818 131.653818 0 0 1-15.988364 1.024 75.124364 75.124364 0 0 1-61.160727-26.507637 86.109091 86.109091 0 0 1-16.477091-37.050181c-58.88 97.373091-71.656727 183.179636-36.724363 249.69309 35.584 67.770182 122.274909 109.870545 226.210909 109.870546 3.141818 0 6.353455 0 9.518545-0.116364a194.885818 194.885818 0 0 0 175.453091-118.434909 260.980364 260.980364 0 0 0-22.993454-263.586909z" fill="#d81e06" p-id="5855"></path><path d="M665.786182 879.802182H389.096727a23.272727 23.272727 0 0 1-23.272727-23.272727 23.272727 23.272727 0 0 1 23.272727-23.272728h276.689455a23.272727 23.272727 0 0 1 23.272727 23.272728 23.272727 23.272727 0 0 1-23.272727 23.272727z" fill="#d81e06" p-id="5856"></path><path d="M620.101818 952.994909h-184.459636a23.272727 23.272727 0 0 1-23.272727-23.272727 23.272727 23.272727 0 0 1 23.272727-23.272727h184.459636a23.272727 23.272727 0 0 1 23.272727 23.272727 23.272727 23.272727 0 0 1-23.272727 23.272727z" fill="#d81e06" p-id="5857"></path></svg>
