<svg t="1703328132739" class="icon" viewBox="0 0 1024 1024" version="1.1" xmlns="http://www.w3.org/2000/svg" p-id="5424" width="200" height="200"><path d="M774.682947 53.894737h-525.473684A87.578947 87.578947 0 0 0 161.684211 141.419789v250.125474L512 640.646737l350.315789-249.101474V141.419789A87.471158 87.471158 0 0 0 774.682947 53.894737zM565.894737 323.368421H296.421053a26.947368 26.947368 0 0 1 0-53.894737h269.473684a26.947368 26.947368 0 0 1 0 53.894737z m161.68421-107.789474H296.421053a26.947368 26.947368 0 0 1 0-53.894736h431.157894a26.947368 26.947368 0 0 1 0 53.894736z m260.634948 152.522106L558.457263 673.684211l429.702737 305.529263A79.656421 79.656421 0 0 0 997.052632 943.157895v-538.947369a82.620632 82.620632 0 0 0-8.892632-36.001684zM26.947368 404.210526v538.947369A80.842105 80.842105 0 0 0 107.789474 1024h808.421052a78.901895 78.901895 0 0 0 32.336842-6.898526L35.84 368.047158A80.518737 80.518737 0 0 0 26.947368 404.210526z" fill="#515151" p-id="5425"></path></svg>
