<svg t="1705838893365" class="icon" viewBox="0 0 1024 1024" version="1.1" xmlns="http://www.w3.org/2000/svg" p-id="6939" width="200" height="200"><path d="M623.04711111 509.30574222a200.24888889 200.24888889 0 0 0 83.15790222-162.74773333C706.20501333 236.89443555 619.18776889 147.91111111 512 147.91111111 404.81223111 147.91111111 317.79498667 237.40416 317.79498667 346.55800889c0 67.35644445 32.768 126.84856889 83.15790222 162.74773333C295.22147555 568.79786667 220.72888889 710.79253333 220.72888889 876.08888889h64.88064c0-182.40853333 101.43516445-330.88398222 226.39047111-330.88398222s226.39047111 148.47544889 226.39047111 330.88398222H803.27111111c0-165.22353778-74.49258667-306.78129778-180.224-366.78314667z m-240.29866666-162.74773333c0-72.81777778 58.10858667-132.23708445 129.25155555-132.23708444 71.14296889 0 129.32437333 59.49212445 129.32437333 132.23708444 0 72.81777778-58.25422222 132.74680889-129.32437333 132.74680889-71.14296889 0-129.32437333-59.49212445-129.32437333-132.74680889z" p-id="6940" fill="#2582c1"></path><path d="M822.05809778 549.86524445c33.49617778-26.50567111 54.97742222-66.26417778 54.97742222-110.68302223 0-80.39082667-68.95843555-145.63555555-153.79114667-145.63555555v63.86119111c47.40437333 0 86.36188445 36.84579555 86.36188445 81.77436444s-38.95751111 81.77436445-86.36188445 81.77436445V584.81777778c87.38133333 0 158.23303111 97.86709333 158.23303112 218.45333333H948.90666667c0-111.55683555-51.91907555-207.53066667-126.84856889-253.40586666zM300.82844445 357.33504v-63.35146667c-84.83271111 0-153.79114667 65.24472889-153.79114667 145.63555556 0 44.41884445 21.48124445 83.66762667 54.97742222 110.61020444C127.01240889 596.17735111 75.09333333 692.15118222 75.09333333 803.27111111h67.42926222c0-120.14933333 70.85169778-218.45333333 158.23303112-218.45333333v-63.86119111c-47.40437333 0-86.36188445-36.84579555-86.36188445-81.77436445S252.84152889 357.40785778 300.82844445 357.40785778z" p-id="6941" fill="#2582c1"></path></svg>
