<svg t="1692321689372" class="icon" viewBox="0 0 1025 1024" version="1.1" xmlns="http://www.w3.org/2000/svg" p-id="5318" width="200" height="200"><path d="M511.87892 0C298.937289 0 104.4233 137.183551 30.712735 335.792572-42.997829 538.496624 20.475157 769.865896 186.323927 907.049447c165.84877 137.183551 405.408105 155.611192 589.684516 45.045345 184.276411-110.565847 280.509648-329.650025 239.559335-540.54414C972.569948 202.704052 800.578631 38.902798 591.732032 6.142547 565.114328 2.047516 538.496624 0 511.87892 0zM870.194164 647.014955c0 20.475157-2.047516 49.140376-18.427641 63.472986-14.33261 14.33261-26.617704-2.047516-34.807767-14.33261-2.047516-4.095031-14.33261-28.66522-16.380125-28.66522-6.142547 0-12.285094 24.570188-12.285094 28.66522-10.237578 24.570188-24.570188 45.045345-42.997829 63.472986 18.427641 18.427641 81.900627 30.712735 65.520502 69.615533-14.33261 34.807767-71.663049 40.950314-102.375784 42.997829-40.950314 2.047516-85.995659-2.047516-124.898457-14.33261-20.475157-6.142547-36.855282-12.285094-59.377955-12.285094-18.427641-2.047516-36.855282 16.380125-55.282923 22.522672-40.950314 14.33261-90.09069 12.285094-131.041004 8.190063-28.66522-4.095031-88.043174-10.237578-94.185721-47.092861-2.047516-12.285094 2.047516-30.712735 10.237578-40.950314 6.142547-6.142547 12.285094-10.237578 20.475157-12.285094 8.190063-2.047516 22.522672-2.047516 28.66522-6.142547 6.142547-4.095031-4.095031-8.190063-8.190063-12.285094-8.190063-6.142547-16.380125-14.33261-22.522672-20.475157-14.33261-16.380125-24.570188-32.760251-30.712735-51.187892-2.047516-4.095031-6.142547-24.570188-8.190063-24.570188-4.095031-2.047516-4.095031 6.142547-6.142547 8.190063-8.190063 16.380125-22.522672 34.807767-40.950314 40.950314-20.475157 8.190063-22.522672-12.285094-24.570188-28.66522-2.047516-20.475157-2.047516-42.997829 4.095031-63.472986 10.237578-40.950314 32.760251-77.805596 61.42547-108.518331 8.190063-8.190063 16.380125-16.380125 26.617704-24.570188 10.237578-8.190063 8.190063-6.142547 8.190063-18.427641-2.047516-22.522672-6.142547-30.712735 4.095031-53.235408 4.095031-8.190063 16.380125-20.475157 18.427641-28.66522 4.095031-10.237578 4.095031-18.427641 6.142547-28.66522 2.047516-20.475157 10.237578-40.950314 18.427641-59.377955 18.427641-38.902798 47.092861-75.75808 79.853112-102.375784 67.568017-53.235408 171.991317-55.282923 249.796913-28.66522 88.043174 28.66522 139.231066 104.4233 151.51616 194.51399 2.047516 8.190063 2.047516 18.427641 4.095031 26.617704 4.095031 10.237578 12.285094 18.427641 14.33261 26.617704 8.190063 20.475157 6.142547 36.855282 2.047516 57.330439-4.095031 16.380125 18.427641 38.902798 26.617704 53.235408 10.237578 20.475157 20.475157 40.950314 28.66522 61.42547C864.051617 604.017126 870.194164 626.539798 870.194164 647.014955z" fill="#1296db" p-id="5319"></path></svg>
