<svg t="1702292174973" class="icon" viewBox="0 0 1024 1024" version="1.1" xmlns="http://www.w3.org/2000/svg" p-id="13548" width="200" height="200"><path d="M966.579439 1024h-350.903427c-28.71028 0-54.23053-22.330218-54.230529-54.23053v-350.903426c0-28.71028 22.330218-54.23053 54.230529-54.23053h350.903427c28.71028 0 54.23053 22.330218 54.23053 54.23053v350.903426c0 31.900312-22.330218 54.23053-54.23053 54.23053m0-564.635514h-350.903427c-28.71028 0-54.23053-22.330218-54.230529-54.23053v-350.903426c0-28.71028 22.330218-54.23053 54.230529-54.23053h350.903427c31.900312 3.190031 54.23053 25.520249 54.23053 57.420561v350.903427c0 28.71028-22.330218 51.040498-54.23053 51.040498M405.133956 1024h-350.903426c-31.900312 0-54.23053-22.330218-54.23053-54.23053v-350.903426c0-28.71028 22.330218-54.23053 54.23053-54.23053h350.903426c28.71028 0 54.23053 22.330218 54.23053 54.23053v350.903426c-3.190031 31.900312-25.520249 54.23053-54.23053 54.23053m0-564.635514h-350.903426c-28.71028 0-54.23053-22.330218-54.23053-54.23053v-350.903426C0 25.520249 22.330218 3.190031 54.23053 3.190031h350.903426c28.71028 0 54.23053 22.330218 54.23053 54.23053v350.903427c-3.190031 28.71028-25.520249 51.040498-54.23053 51.040498m0 0" fill="#666666" p-id="13549"></path></svg>
