<svg t="1694588864172" class="icon" viewBox="0 0 1024 1024" version="1.1" xmlns="http://www.w3.org/2000/svg" p-id="10221" width="200" height="200"><path d="M704 864H192c-89.6 0-160-70.4-160-160V192c0-89.6 70.4-160 160-160h512c89.6 0 160 70.4 160 160v512c0 89.6-70.4 160-160 160zM192 96c-51.2 0-96 44.8-96 96v512c0 51.2 44.8 96 96 96h512c51.2 0 96-44.8 96-96V192c0-51.2-44.8-96-96-96H192z" fill="#707070" p-id="10222"></path><path d="M832 992H320c-19.2 0-32-12.8-32-32s12.8-32 32-32h512c51.2 0 96-44.8 96-96V320c0-19.2 12.8-32 32-32s32 12.8 32 32v512c0 89.6-70.4 160-160 160z" fill="#707070" p-id="10223"></path></svg>
